<svg width="49" height="37" viewBox="0 0 49 37" fill="none" xmlns="http://www.w3.org/2000/svg">
<path d="M7.35 15.8571C10.0527 15.8571 12.25 13.4868 12.25 10.5714C12.25 7.65603 10.0527 5.28571 7.35 5.28571C4.64734 5.28571 2.45 7.65603 2.45 10.5714C2.45 13.4868 4.64734 15.8571 7.35 15.8571ZM41.65 15.8571C44.3527 15.8571 46.55 13.4868 46.55 10.5714C46.55 7.65603 44.3527 5.28571 41.65 5.28571C38.9473 5.28571 36.75 7.65603 36.75 10.5714C36.75 13.4868 38.9473 15.8571 41.65 15.8571ZM44.1 18.5H39.2C37.8525 18.5 36.6352 19.0864 35.747 20.0362C38.8325 21.8614 41.0222 25.1567 41.4969 29.0714H46.55C47.9052 29.0714 49 27.8904 49 26.4286V23.7857C49 20.8703 46.8027 18.5 44.1 18.5ZM24.5 18.5C29.2392 18.5 33.075 14.3623 33.075 9.25C33.075 4.13772 29.2392 0 24.5 0C19.7608 0 15.925 4.13772 15.925 9.25C15.925 14.3623 19.7608 18.5 24.5 18.5ZM30.38 21.1429H29.7445C28.152 21.9687 26.3834 22.4643 24.5 22.4643C22.6166 22.4643 20.8556 21.9687 19.2555 21.1429H18.62C13.7506 21.1429 9.8 25.4045 9.8 30.6571V33.0357C9.8 35.2243 11.4461 37 13.475 37H35.525C37.5539 37 39.2 35.2243 39.2 33.0357V30.6571C39.2 25.4045 35.2494 21.1429 30.38 21.1429ZM13.253 20.0362C12.3648 19.0864 11.1475 18.5 9.8 18.5H4.9C2.19734 18.5 0 20.8703 0 23.7857V26.4286C0 27.8904 1.09484 29.0714 2.45 29.0714H7.49547C7.97781 25.1567 10.1675 21.8614 13.253 20.0362Z" fill="black"/>
</svg>
