<svg width="52" height="45" viewBox="0 0 52 45" fill="none" xmlns="http://www.w3.org/2000/svg">
<path d="M8.6665 35.625V31.875H12.9998V18.75C12.9998 16.1562 13.9026 13.8594 15.7082 11.8594C17.5137 9.82812 19.8609 8.5 22.7498 7.875V6.5625C22.7498 5.78125 23.0568 5.125 23.6707 4.59375C24.3207 4.03125 25.0971 3.75 25.9998 3.75C26.9026 3.75 27.6609 4.03125 28.2748 4.59375C28.9248 5.125 29.2498 5.78125 29.2498 6.5625V7.875C32.1387 8.5 34.4859 9.82812 36.2915 11.8594C38.0971 13.8594 38.9998 16.1562 38.9998 18.75V31.875H43.3332V35.625H8.6665ZM25.9998 41.25C24.8082 41.25 23.779 40.8906 22.9123 40.1719C22.0818 39.4219 21.6665 38.5312 21.6665 37.5H30.3332C30.3332 38.5312 29.8998 39.4219 29.0332 40.1719C28.2026 40.8906 27.1915 41.25 25.9998 41.25ZM17.3332 31.875H34.6665V18.75C34.6665 16.6875 33.8179 14.9219 32.1207 13.4531C30.4234 11.9844 28.3832 11.25 25.9998 11.25C23.6165 11.25 21.5762 11.9844 19.879 13.4531C18.1818 14.9219 17.3332 16.6875 17.3332 18.75V31.875Z" fill="#FEF7FF"/>
<ellipse cx="38.5" cy="9.5" rx="6.5" ry="5.5" fill="#FF0000"/>
</svg>
