<svg width="25" height="24" viewBox="0 0 25 24" fill="none" xmlns="http://www.w3.org/2000/svg">
<path d="M5.71826 19H7.14326L16.9183 9.225L15.4933 7.8L5.71826 17.575V19ZM3.71826 21V16.75L16.9183 3.575C17.1183 3.39167 17.3391 3.25 17.5808 3.15C17.8224 3.05 18.0766 3 18.3433 3C18.6099 3 18.8683 3.05 19.1183 3.15C19.3683 3.25 19.5849 3.4 19.7683 3.6L21.1433 5C21.3433 5.18333 21.4891 5.4 21.5808 5.65C21.6724 5.9 21.7183 6.15 21.7183 6.4C21.7183 6.66667 21.6724 6.92083 21.5808 7.1625C21.4891 7.40417 21.3433 7.625 21.1433 7.825L7.96826 21H3.71826ZM16.1933 8.525L15.4933 7.8L16.9183 9.225L16.1933 8.525Z" fill="#65558F"/>
</svg>
