<svg width="47" height="40" viewBox="0 0 47 40" fill="none" xmlns="http://www.w3.org/2000/svg">
<path d="M46.5104 35.9091H4.40625V0.454545C4.40625 0.204545 4.18594 0 3.91667 0H0.489583C0.220313 0 0 0.204545 0 0.454545V39.5455C0 39.7955 0.220313 40 0.489583 40H46.5104C46.7797 40 47 39.7955 47 39.5455V36.3636C47 36.1136 46.7797 35.9091 46.5104 35.9091ZM10.881 27.142C11.0707 27.3182 11.3767 27.3182 11.5725 27.142L20.0362 19.3239L27.8451 26.6193C28.0348 26.7955 28.3469 26.7955 28.5366 26.6193L45.3905 10.9773C45.5802 10.8011 45.5802 10.5114 45.3905 10.3352L42.9671 8.08523C42.875 8.00064 42.7508 7.95318 42.6213 7.95318C42.4918 7.95318 42.3675 8.00064 42.2755 8.08523L28.2 21.1477L20.4034 13.8636C20.3114 13.779 20.1871 13.7316 20.0576 13.7316C19.9281 13.7316 19.8039 13.779 19.7118 13.8636L8.46367 24.2443C8.37256 24.3298 8.32145 24.4451 8.32145 24.5653C8.32145 24.6856 8.37256 24.8009 8.46367 24.8864L10.881 27.142Z" fill="black"/>
</svg>
