<svg width="35" height="43" viewBox="0 0 35 43" fill="none" xmlns="http://www.w3.org/2000/svg">
<path d="M4.88386 0C4.54199 0 4.24896 0.05375 3.95593 0.16125C2.05122 0.59125 0.537225 2.2575 0.146516 4.35375C0 4.67625 0 4.99875 0 5.375V34.9375C0 39.3988 3.27219 43 7.32579 43H34.187V37.625H7.32579C5.95831 37.625 4.88386 36.4425 4.88386 34.9375C4.88386 33.4325 5.95831 32.25 7.32579 32.25H34.187V2.6875C34.187 1.1825 33.1126 0 31.7451 0H29.3032V16.125L24.4193 10.75L19.5354 16.125V0H4.88386Z" fill="black"/>
</svg>
